<svg width="200" height="59" viewBox="0 0 200 59" fill="none" xmlns="http://www.w3.org/2000/svg">
<path d="M9.184 23.008C9.984 21.76 11.088 20.752 12.496 19.984C13.904 19.216 15.552 18.832 17.44 18.832C19.648 18.832 21.648 19.392 23.44 20.512C25.232 21.632 26.64 23.232 27.664 25.312C28.72 27.392 29.248 29.808 29.248 32.56C29.248 35.312 28.72 37.744 27.664 39.856C26.64 41.936 25.232 43.552 23.44 44.704C21.648 45.824 19.648 46.384 17.44 46.384C15.584 46.384 13.936 46 12.496 45.232C11.088 44.464 9.984 43.472 9.184 42.256V58.768H0.976V19.216H9.184V23.008ZM20.896 32.56C20.896 30.512 20.32 28.912 19.168 27.76C18.048 26.576 16.656 25.984 14.992 25.984C13.36 25.984 11.968 26.576 10.816 27.76C9.696 28.944 9.136 30.56 9.136 32.608C9.136 34.656 9.696 36.272 10.816 37.456C11.968 38.64 13.36 39.232 14.992 39.232C16.624 39.232 18.016 38.64 19.168 37.456C20.32 36.24 20.896 34.608 20.896 32.56ZM31.9221 32.56C31.9221 29.808 32.4341 27.392 33.4581 25.312C34.5141 23.232 35.9381 21.632 37.7301 20.512C39.5221 19.392 41.5221 18.832 43.7301 18.832C45.6181 18.832 47.2661 19.216 48.6741 19.984C50.1141 20.752 51.2181 21.76 51.9861 23.008V19.216H60.1941V46H51.9861V42.208C51.1861 43.456 50.0661 44.464 48.6261 45.232C47.2181 46 45.5701 46.384 43.6821 46.384C41.5061 46.384 39.5221 45.824 37.7301 44.704C35.9381 43.552 34.5141 41.936 33.4581 39.856C32.4341 37.744 31.9221 35.312 31.9221 32.56ZM51.9861 32.608C51.9861 30.56 51.4101 28.944 50.2581 27.76C49.1381 26.576 47.7621 25.984 46.1301 25.984C44.4981 25.984 43.1061 26.576 41.9541 27.76C40.8341 28.912 40.2741 30.512 40.2741 32.56C40.2741 34.608 40.8341 36.24 41.9541 37.456C43.1061 38.64 44.4981 39.232 46.1301 39.232C47.7621 39.232 49.1381 38.64 50.2581 37.456C51.4101 36.272 51.9861 34.656 51.9861 32.608ZM64.5003 32.608C64.5003 29.824 65.0603 27.392 66.1803 25.312C67.3323 23.232 68.9163 21.632 70.9323 20.512C72.9803 19.392 75.3163 18.832 77.9403 18.832C81.3003 18.832 84.1003 19.712 86.3403 21.472C88.6123 23.232 90.1003 25.712 90.8043 28.912H82.0683C81.3323 26.864 79.9083 25.84 77.7963 25.84C76.2923 25.84 75.0923 26.432 74.1963 27.616C73.3003 28.768 72.8523 30.432 72.8523 32.608C72.8523 34.784 73.3003 36.464 74.1963 37.648C75.0923 38.8 76.2923 39.376 77.7963 39.376C79.9083 39.376 81.3323 38.352 82.0683 36.304H90.8043C90.1003 39.44 88.6123 41.904 86.3403 43.696C84.0683 45.488 81.2683 46.384 77.9403 46.384C75.3163 46.384 72.9803 45.824 70.9323 44.704C68.9163 43.584 67.3323 41.984 66.1803 39.904C65.0603 37.824 64.5003 35.392 64.5003 32.608ZM99.3228 16.432C97.8828 16.432 96.6988 16.016 95.7708 15.184C94.8748 14.32 94.4268 13.264 94.4268 12.016C94.4268 10.736 94.8748 9.68 95.7708 8.848C96.6988 7.984 97.8828 7.552 99.3228 7.552C100.731 7.552 101.883 7.984 102.779 8.848C103.707 9.68 104.171 10.736 104.171 12.016C104.171 13.264 103.707 14.32 102.779 15.184C101.883 16.016 100.731 16.432 99.3228 16.432ZM103.403 19.216V46H95.1948V19.216H103.403ZM120.247 46.384C117.911 46.384 115.831 45.984 114.007 45.184C112.183 44.384 110.743 43.296 109.687 41.92C108.631 40.512 108.039 38.944 107.911 37.216H116.023C116.119 38.144 116.551 38.896 117.319 39.472C118.087 40.048 119.031 40.336 120.151 40.336C121.175 40.336 121.959 40.144 122.503 39.76C123.079 39.344 123.367 38.816 123.367 38.176C123.367 37.408 122.967 36.848 122.167 36.496C121.367 36.112 120.071 35.696 118.279 35.248C116.359 34.8 114.759 34.336 113.479 33.856C112.199 33.344 111.095 32.56 110.167 31.504C109.239 30.416 108.775 28.96 108.775 27.136C108.775 25.6 109.191 24.208 110.023 22.96C110.887 21.68 112.135 20.672 113.767 19.936C115.431 19.2 117.399 18.832 119.671 18.832C123.031 18.832 125.671 19.664 127.591 21.328C129.543 22.992 130.663 25.2 130.951 27.952H123.367C123.239 27.024 122.823 26.288 122.119 25.744C121.447 25.2 120.551 24.928 119.431 24.928C118.471 24.928 117.735 25.12 117.223 25.504C116.711 25.856 116.455 26.352 116.455 26.992C116.455 27.76 116.855 28.336 117.655 28.72C118.487 29.104 119.767 29.488 121.495 29.872C123.479 30.384 125.095 30.896 126.343 31.408C127.591 31.888 128.679 32.688 129.607 33.808C130.567 34.896 131.063 36.368 131.095 38.224C131.095 39.792 130.647 41.2 129.751 42.448C128.887 43.664 127.623 44.624 125.959 45.328C124.327 46.032 122.423 46.384 120.247 46.384ZM154.405 0.399998L141.541 54.976H133.621L146.485 0.399998H154.405ZM184.315 19.216V46H176.107V42.352C175.275 43.536 174.139 44.496 172.699 45.232C171.291 45.936 169.723 46.288 167.995 46.288C165.947 46.288 164.139 45.84 162.571 44.944C161.003 44.016 159.787 42.688 158.923 40.96C158.059 39.232 157.627 37.2 157.627 34.864V19.216H165.787V33.76C165.787 35.552 166.251 36.944 167.179 37.936C168.107 38.928 169.355 39.424 170.923 39.424C172.523 39.424 173.787 38.928 174.715 37.936C175.643 36.944 176.107 35.552 176.107 33.76V19.216H184.315ZM194.338 16.432C192.898 16.432 191.714 16.016 190.786 15.184C189.89 14.32 189.442 13.264 189.442 12.016C189.442 10.736 189.89 9.68 190.786 8.848C191.714 7.984 192.898 7.552 194.338 7.552C195.746 7.552 196.898 7.984 197.794 8.848C198.722 9.68 199.186 10.736 199.186 12.016C199.186 13.264 198.722 14.32 197.794 15.184C196.898 16.016 195.746 16.432 194.338 16.432ZM198.418 19.216V46H190.21V19.216H198.418Z" fill="#0072F5"/>
</svg>
